<svg width="50" height="50" viewBox="0 0 50 50" fill="none" xmlns="http://www.w3.org/2000/svg">
<path d="M43.8625 38.6674L34.415 29.2199C35.8878 26.8026 36.6647 24.0256 36.66 21.1949C36.66 12.6524 29.2575 5.25244 20.715 5.25244C18.684 5.25211 16.6729 5.6519 14.7964 6.42898C12.92 7.20605 11.215 8.34518 9.77886 9.7813C8.34274 11.2174 7.20361 12.9224 6.42653 14.7989C5.64946 16.6753 5.24967 18.6865 5.25 20.7174C5.25 29.2574 12.6525 36.6599 21.1925 36.6599C23.9299 36.6624 26.6183 35.934 28.98 34.5499L38.4775 44.0524C38.9241 44.4979 39.5292 44.7481 40.16 44.7481C40.7908 44.7481 41.3959 44.4979 41.8425 44.0524L44.2 41.6949C45.1275 40.7674 44.79 39.5949 43.8625 38.6674ZM10.01 20.7174C10.009 19.3112 10.2852 17.9186 10.8228 16.6193C11.3604 15.3199 12.1489 14.1392 13.1431 13.1448C14.1373 12.1503 15.3178 11.3616 16.617 10.8237C17.9163 10.2858 19.3088 10.0093 20.715 10.0099C26.63 10.0099 31.9 15.2774 31.9 21.1949C31.8993 24.0345 30.771 26.7577 28.7631 28.7656C26.7552 30.7735 24.0321 31.9018 21.1925 31.9024C15.2775 31.8999 10.01 26.6299 10.01 20.7174Z" fill="white"/>
</svg>
